<svg width="24" height="24" viewBox="0 0 24 24" fill="none" xmlns="http://www.w3.org/2000/svg">
<path d="M20 9H8.22C7.11 7.77 5.21 7.68 4 8.8C3.36 9.36 3 10.16 3 11V20C2.73478 20 2.48043 20.1054 2.29289 20.2929C2.10536 20.4804 2 20.7348 2 21V22H10V21C10 20.7348 9.89464 20.4804 9.70711 20.2929C9.51957 20.1054 9.26522 20 9 20V13H20C20.5304 13 21.0391 12.7893 21.4142 12.4142C21.7893 12.0391 22 11.5304 22 11C22 10.4696 21.7893 9.96086 21.4142 9.58579C21.0391 9.21071 20.5304 9 20 9ZM6 12.5C5.60218 12.5 5.22064 12.342 4.93934 12.0607C4.65804 11.7794 4.5 11.3978 4.5 11C4.5 10.6022 4.65804 10.2206 4.93934 9.93934C5.22064 9.65803 5.60218 9.5 6 9.5C6.39782 9.5 6.77936 9.65803 7.06066 9.93934C7.34196 10.2206 7.5 10.6022 7.5 11C7.5 11.3978 7.34196 11.7794 7.06066 12.0607C6.77936 12.342 6.39782 12.5 6 12.5V12.5ZM10.5 12L9 10H10.5L12 12H10.5ZM14.5 12L13 10H14.5L16 12H14.5ZM18.5 12L17 10H18.5L20 12H18.5Z" fill="white"/>
</svg>
