<svg width="24" height="24" viewBox="0 0 24 24" fill="none" xmlns="http://www.w3.org/2000/svg">
<path d="M19.86 3C19.31 2.04 18.09 1.71 17.12 2.27L6.92 8.16C6.62 8.06 6.31 8 6 8C5.20435 8 4.44129 8.31607 3.87868 8.87868C3.31607 9.44129 3 10.2043 3 11V20C2.73478 20 2.48043 20.1054 2.29289 20.2929C2.10536 20.4804 2 20.7348 2 21V22H10V21C10 20.7348 9.89464 20.4804 9.70711 20.2929C9.51957 20.1054 9.26522 20 9 20V11.58L19.12 5.73C20.08 5.18 20.41 3.96 19.86 3ZM6 12.5C5.60218 12.5 5.22064 12.342 4.93934 12.0607C4.65804 11.7794 4.5 11.3978 4.5 11C4.5 10.6022 4.65804 10.2206 4.93934 9.93934C5.22064 9.65803 5.60218 9.5 6 9.5C6.39782 9.5 6.77936 9.65803 7.06066 9.93934C7.34196 10.2206 7.5 10.6022 7.5 11C7.5 11.3978 7.34196 11.7794 7.06066 12.0607C6.77936 12.342 6.39782 12.5 6 12.5V12.5ZM10.4 9.62L8.1 8.62L9.4 7.87L11.7 8.87L10.4 9.62ZM13.86 7.62L11.56 6.62L12.86 5.87L15.16 6.87L13.86 7.62ZM17.33 5.62L15.03 4.62L16.33 3.87L18.62 4.87L17.33 5.62ZM17 11L22 16H19V20H15V16H12L17 11Z" fill="white"/>
</svg>
